<?xml version="1.0" encoding="UTF-8" standalone="no"?>
<svg
   xmlns:dc="http://purl.org/dc/elements/1.1/"
   xmlns:cc="http://creativecommons.org/ns#"
   xmlns:rdf="http://www.w3.org/1999/02/22-rdf-syntax-ns#"
   xmlns:svg="http://www.w3.org/2000/svg"
   xmlns="http://www.w3.org/2000/svg"
   xmlns:sodipodi="http://sodipodi.sourceforge.net/DTD/sodipodi-0.dtd"
   xmlns:inkscape="http://www.inkscape.org/namespaces/inkscape"
   sodipodi:docname="motivation_&amp;_inspiration.svg"
   inkscape:version="1.0 (4035a4fb49, 2020-05-01)"
   id="svg8"
   version="1.1"
   viewBox="0 0 24 24"
   height="24"
   width="24">
  <defs
     id="defs2" />
  <sodipodi:namedview
     inkscape:window-maximized="1"
     inkscape:window-y="-9"
     inkscape:window-x="-9"
     inkscape:window-height="1005"
     inkscape:window-width="1920"
     units="px"
     showgrid="false"
     inkscape:document-rotation="0"
     inkscape:current-layer="layer1"
     inkscape:document-units="px"
     inkscape:cy="16"
     inkscape:cx="16"
     inkscape:zoom="22.09375"
     inkscape:pageshadow="2"
     inkscape:pageopacity="0.0"
     borderopacity="1.0"
     bordercolor="#666666"
     pagecolor="#ffffff"
     id="base" />
  <metadata
     id="metadata5">
    <rdf:RDF>
      <cc:Work
         rdf:about="">
        <dc:format>image/svg+xml</dc:format>
        <dc:type
           rdf:resource="http://purl.org/dc/dcmitype/StillImage" />
        <dc:title></dc:title>
      </cc:Work>
    </rdf:RDF>
  </metadata>
  <g
     id="layer1"
     inkscape:groupmode="layer"
     inkscape:label="Layer 1">
    <path
       sodipodi:nodetypes="cczzsccc"
       id="path833"
       d="m 7.9984102,18.078127 v -2 C 6.5952992,12.214303 6.1686152,13.193144 4.9984105,9.0781271 3.8282056,4.9631106 6.2573112,2.2365123 12.26998,2.4317341 c 6.01267,0.1952218 7.787632,2.7458721 6.72843,6.646393 -1.295353,4.7701459 -1.445211,3.6262819 -3,6.9999999 v 2 z"
       style="fill:none;stroke:#000000;stroke-width:0.2;stroke-linecap:butt;stroke-linejoin:miter;stroke-miterlimit:4;stroke-dasharray:none;stroke-opacity:1" />
    <path
       sodipodi:nodetypes="sscccsccccccccccccccscc"
       d="m 9.0823952,8.5195331 c -0.160805,0.02465 -0.326752,0.127934 -0.484375,0.359375 -0.630493,0.925766 0.40039,1.1992189 0.40039,1.1992189 h 1 V 9.0781271 c 0,0 -0.433602,-0.632529 -0.916015,-0.558594 z m 0.916015,1.5585939 v 8 H 5.9984105 v 2 h 3.9999997 c 0,0 0.7688758,1.502744 1.9999998,1.5 1.231124,-0.0027 2,-1.5 2,-1.5 h 4 v -2 h -4 v -8 z m 3.9999998,0 h 1 c 0,0 1.07691,-0.2885079 0.400391,-1.1992189 -0.676519,-0.91071 -1.400391,0.199219 -1.400391,0.199219 z"
       style="fill:none;stroke:#000000;stroke-width:0.2;stroke-linecap:butt;stroke-linejoin:miter;stroke-miterlimit:4;stroke-dasharray:none;stroke-opacity:1"
       id="path835" />
    <path
       id="path853"
       d="M 9.9984102,20.078127 H 13.99841"
       style="fill:none;stroke:#000000;stroke-width:0.2;stroke-linecap:butt;stroke-linejoin:miter;stroke-miterlimit:4;stroke-dasharray:none;stroke-opacity:1" />
  </g>
</svg>
